<?xml version="1.0" encoding="utf-8"?>
<!-- Generator: Adobe Illustrator 19.0.0, SVG Export Plug-In . SVG Version: 6.00 Build 0)  -->
<svg version="1.1" id="Layer_1" xmlns="http://www.w3.org/2000/svg" xmlns:xlink="http://www.w3.org/1999/xlink" x="0px" y="0px"
	 viewBox="-104 172.4 402 449.6" style="enable-background:new -104 172.4 402 449.6;" xml:space="preserve">
<style type="text/css">
	.st0{fill:#FFFFFF;}
	.st1{enable-background:new    ;}
</style>
<title>Logo</title>
<path class="st0" d="M-99.6,529.2l26.1-1.3c0.3,2.8,1.5,5.4,3.4,7.5c2.8,2.8,6.8,4.2,12,4.2c3.9,0,6.9-0.7,9-2.1s3.2-3.1,3.2-4.9
	s-1-3.4-3-4.8c-2-1.4-6.7-2.7-14-4c-12-2.1-20.6-4.9-25.7-8.4c-5.1-3.5-7.7-7.9-7.8-13.3c0.1-3.7,1.5-7.3,4-10
	c2.6-3.2,6.6-5.6,11.9-7.4c5.3-1.8,12.6-2.7,21.9-2.7c11.3,0,20,1.6,26,4.9c6,3.3,9.6,8.5,10.6,15.6l-25.8,1.2
	c-0.5-2.7-2-5.2-4.3-6.7c-2.2-1.4-5.3-2.1-9.2-2.1c-3.2,0-5.6,0.5-7.2,1.6c-1.4,0.7-2.4,2.2-2.4,3.8c0.1,1.3,0.9,2.4,2,2.9
	c1.3,0.9,4.3,1.7,9.2,2.5c12,2,20.6,4,25.8,6.1c5.2,2,9,4.6,11.3,7.6c2.3,2.9,3.6,6.5,3.6,10.2c0,4.5-1.7,8.8-4.7,12.2
	c-3.5,4-8.1,6.9-13.2,8.5c-5.6,1.9-12.8,2.9-21.4,2.9c-15.1,0-25.6-2.2-31.3-6.7C-95.3,542.3-98.9,536.1-99.6,529.2z"/>
<path class="st0" d="M35.9,483.3h36.3L85.9,525l13.8-41.8h36.1V552h-22.5v-52.4L96,552H75.6l-17.2-52.4V552H35.9V483.3z"/>
<path class="st0" d="M249.2,540.7h-31l-4.4,11.3h-28.1l33.3-68.7h30.1l33.3,68.7h-28.8L249.2,540.7z M243.4,525.8l-9.6-24.7
	l-9.7,24.7H243.4z"/>
<polygon class="st0" points="89.4,172.4 68.2,205.5 110.3,205.5 52.1,230.6 127.5,230.6 34.9,257.4 143.6,257.4 18.2,283.4 
	160.2,283.4 2.2,308.5 176.3,308.5 -15.1,335.3 193.5,335.3 -31.7,361.3 210.1,361.3 -47.8,386.4 226.2,386.4 -64.4,412.3 
	242.9,412.3 -82.2,440.1 260.6,440.1 -104,474.1 282.8,474.1 "/>
<g class="st1">
	<path class="st0" d="M-102.3,604.9c0-5.3,3.5-9.6,8.4-9.6c5.2,0,8.2,4.3,8.2,9.8v0.7h-13.8c0.2,3.5,2.4,6.3,6.1,6.3
		c2,0,3.9-0.8,5.3-2.4l1.3,1.9c-1.7,1.8-4,2.8-6.8,2.8C-98.7,614.5-102.3,610.6-102.3,604.9z M-94,597.6c-3.6,0-5.4,3.3-5.6,6.1
		h11.2C-88.4,601-90.1,597.6-94,597.6z"/>
	<path class="st0" d="M-68.4,614l-5.2-7.5l-5.1,7.5h-3l6.5-9.4l-6.2-8.9h3.1l4.7,7l4.8-7h3l-6.2,8.9l6.6,9.4H-68.4z"/>
	<path class="st0" d="M-57.7,611.3v9.7h-2.6v-25.3h2.6v2.7c1.2-1.9,3.4-3.2,5.8-3.2c4.5,0,7.6,3.6,7.6,9.6c0,5.9-3.1,9.6-7.6,9.6
		C-54.3,614.5-56.3,613.3-57.7,611.3z M-47.2,604.9c0-4.1-2-7.1-5.5-7.1c-2.1,0-4.2,1.3-5.1,2.9v8.3c0.9,1.6,3,3,5.1,3
		C-49.2,612-47.2,608.9-47.2,604.9z"/>
	<path class="st0" d="M-39.2,604.9c0-5.3,3.5-9.6,8.4-9.6c5.2,0,8.2,4.3,8.2,9.8v0.7h-13.8c0.2,3.5,2.4,6.3,6.1,6.3
		c2,0,3.9-0.8,5.3-2.4l1.3,1.9c-1.7,1.8-4,2.8-6.8,2.8C-35.6,614.5-39.2,610.6-39.2,604.9z M-30.8,597.6c-3.6,0-5.4,3.3-5.6,6.1
		h11.2C-25.2,601-26.9,597.6-30.8,597.6z"/>
	<path class="st0" d="M-16.4,614v-18.3h2.6v2.9c1.4-1.9,3.4-3.3,5.7-3.3v2.9c-0.3,0-0.6-0.1-1-0.1c-1.7,0-3.9,1.4-4.7,2.9v13H-16.4z
		"/>
	<path class="st0" d="M-3.2,591.2c0-1.1,0.8-1.9,1.8-1.9s1.8,0.9,1.8,1.9s-0.8,1.9-1.8,1.9S-3.2,592.3-3.2,591.2z M-2.7,614v-18.3
		h2.6V614H-2.7z"/>
	<path class="st0" d="M6.2,604.9c0-5.3,3.5-9.6,8.4-9.6c5.2,0,8.2,4.3,8.2,9.8v0.7H9c0.2,3.5,2.4,6.3,6.1,6.3c2,0,3.9-0.8,5.3-2.4
		l1.3,1.9c-1.7,1.8-4,2.8-6.8,2.8C9.8,614.5,6.2,610.6,6.2,604.9z M14.6,597.6c-3.6,0-5.4,3.3-5.6,6.1h11.2
		C20.1,601,18.4,597.6,14.6,597.6z"/>
	<path class="st0" d="M40.6,614v-12c0-3.3-1.6-4.2-3.8-4.2c-2.1,0-4,1.4-5,2.8V614H29v-18.3h2.6v2.7c1.2-1.6,3.5-3.1,6.1-3.1
		c3.5,0,5.4,1.9,5.4,5.9V614H40.6z"/>
	<path class="st0" d="M49.5,604.9c0-5.4,3.4-9.6,8.5-9.6c3.1,0,4.9,1.4,6.2,3.2l-1.8,1.7c-1.1-1.7-2.6-2.4-4.3-2.4
		c-3.6,0-5.9,3-5.9,7.1s2.3,7.1,5.9,7.1c1.8,0,3.2-0.8,4.3-2.4l1.8,1.7c-1.3,1.8-3.1,3.2-6.2,3.2C52.9,614.5,49.5,610.3,49.5,604.9z
		"/>
	<path class="st0" d="M69,604.9c0-5.3,3.5-9.6,8.4-9.6c5.2,0,8.2,4.3,8.2,9.8v0.7H71.8c0.2,3.5,2.4,6.3,6.1,6.3c2,0,3.9-0.8,5.3-2.4
		l1.3,1.9c-1.7,1.8-4,2.8-6.8,2.8C72.6,614.5,69,610.6,69,604.9z M77.3,597.6c-3.6,0-5.4,3.3-5.6,6.1h11.2
		C82.9,601,81.2,597.6,77.3,597.6z"/>
</g>
<g class="st1">
	<path class="st0" d="M126.3,614v-11.6c0-1.7-0.7-2.9-2.5-2.9c-1.6,0-2.9,1.1-3.5,2.1V614h-4.5v-11.6c0-1.7-0.7-2.9-2.5-2.9
		c-1.6,0-2.9,1.1-3.5,2.1V614h-4.5v-18.3h4.5v2.4c0.7-1.1,3-2.8,5.6-2.8c2.5,0,4.1,1.3,4.7,3.3c1-1.6,3.2-3.3,5.9-3.3
		c3.1,0,5,1.8,5,5.5V614H126.3z"/>
	<path class="st0" d="M147.5,614v-1.9c-1.2,1.5-3.2,2.4-5.4,2.4c-2.7,0-5.9-2-5.9-6.1c0-4.3,3.2-5.9,5.9-5.9c2.3,0,4.3,0.8,5.4,2.2
		v-2.3c0-1.9-1.5-3.1-3.7-3.1c-1.8,0-3.5,0.8-4.9,2.2l-1.8-3.4c2.1-2,4.8-2.9,7.4-2.9c3.9,0,7.5,1.7,7.5,6.9V614H147.5z
		 M147.5,609.6v-2.3c-0.7-1.1-2.2-1.6-3.6-1.6c-1.8,0-3.2,1-3.2,2.8s1.4,2.7,3.2,2.7C145.3,611.2,146.7,610.7,147.5,609.6z"/>
	<path class="st0" d="M158.4,614v-18.3h4.5v2.5c1.2-1.6,3.3-2.9,5.4-2.9v4.7c-0.3-0.1-0.7-0.1-1.2-0.1c-1.5,0-3.5,0.9-4.2,2.1V614
		H158.4z"/>
	<path class="st0" d="M184.1,614l-4.5-7.1l-2,2.4v4.7h-4.5v-25.3h4.5v15.1l6.5-8.2h5.5l-6.7,8.3l6.9,10H184.1z"/>
	<path class="st0" d="M192.6,604.9c0-5.3,3.7-9.6,8.8-9.6c5.1,0,8.5,4.1,8.5,10.1v1.1h-12.7c0.3,2.2,2,4.1,4.9,4.1
		c1.4,0,3.4-0.6,4.5-1.8l2,3.2c-1.7,1.7-4.4,2.5-7,2.5C196.5,614.5,192.6,610.7,192.6,604.9z M201.4,599.2c-2.8,0-4,2.1-4.2,3.9h8.4
		C205.5,601.4,204.4,599.2,201.4,599.2z"/>
	<path class="st0" d="M216.1,609.5v-9.5h-2.8v-4.2h2.8v-5h4.5v5h3.5v4.2h-3.5v8.2c0,1.2,0.6,2,1.6,2c0.7,0,1.3-0.3,1.6-0.6l1,3.7
		c-0.7,0.6-1.9,1.2-3.7,1.2C217.8,614.5,216.1,612.7,216.1,609.5z"/>
	<path class="st0" d="M228.7,590.9c0-1.6,1.2-2.8,2.6-2.8c1.5,0,2.7,1.3,2.7,2.8c0,1.6-1.2,2.9-2.7,2.9
		C229.9,593.7,228.7,592.5,228.7,590.9z M229.1,614v-18.3h4.5V614H229.1z"/>
	<path class="st0" d="M251.5,614V603c0-2.5-1.2-3.4-3.1-3.4c-1.8,0-3.1,1.1-3.9,2.1V614H240v-18.3h4.5v2.4c1.1-1.4,3.2-2.8,6-2.8
		c3.8,0,5.6,2.3,5.6,5.8V614H251.5z"/>
	<path class="st0" d="M262.1,618.7l2-3.5c1.4,1.6,3.2,2.2,5.3,2.2c2.2,0,4.7-1,4.7-4.7V611c-1.3,1.8-3.2,2.8-5.3,2.8
		c-4.2,0-7.5-3.2-7.5-9.3c0-6,3.2-9.3,7.5-9.3c2,0,3.9,0.9,5.3,2.8v-2.4h4.5v17.1c0,6.9-5,8.6-9.2,8.6
		C266.5,621.5,264.2,620.8,262.1,618.7z M274.1,607.6v-6c-0.8-1.2-2.4-2-3.8-2c-2.6,0-4.3,1.9-4.3,5s1.8,5,4.3,5
		C271.7,609.6,273.3,608.7,274.1,607.6z"/>
	<path class="st0" d="M284.5,611.4c0-1.7,1.3-3.1,2.9-3.1s2.9,1.4,2.9,3.1s-1.3,3.1-2.9,3.1S284.5,613.1,284.5,611.4z"/>
</g>
</svg>
