<svg xmlns="http://www.w3.org/2000/svg" viewBox="0 0 402.02 449.63"><defs><style>.a,.b{fill:#fff;}.b{font-size:37.94px;font-family:Proxima Nova;letter-spacing:2.14px;}.c,.d{font-weight:700;}.d{letter-spacing:1.07px;}</style></defs><title>Logo</title><path class="a" d="M61,382.76l26.14-1.27A13.46,13.46,0,0,0,90.58,389q4.2,4.2,12,4.2c3.88,0,6.89-.7,9-2.13s3.15-3.06,3.15-4.94-1-3.36-3-4.78-6.66-2.73-14-4Q79.72,374.24,72,369t-7.75-13.29a15.34,15.34,0,0,1,4-10c2.63-3.15,6.63-5.61,11.93-7.41s12.6-2.7,21.86-2.7q17,0,26,4.92t10.65,15.6l-25.84,1.17a10.24,10.24,0,0,0-4.35-6.72c-2.2-1.39-5.25-2.1-9.15-2.1q-4.79,0-7.22,1.58a4.51,4.51,0,0,0-2.43,3.82,3.61,3.61,0,0,0,2,2.94c1.27,0.9,4.35,1.74,9.19,2.53q18,3,25.78,6.06c5.17,2,9,4.57,11.32,7.59a16.06,16.06,0,0,1,3.55,10.15,18.33,18.33,0,0,1-4.72,12.16,29,29,0,0,1-13.2,8.45q-8.46,2.87-21.36,2.87-22.66,0-31.35-6.74A24.37,24.37,0,0,1,61,382.76Z" transform="translate(-56.6 -25.89)"/><path class="a" d="M196.47,336.79h36.31l13.72,41.78,13.76-41.78H296.4V405.5H273.85V353.06L256.57,405.5H236.24L219,353.06V405.5H196.47V336.79Z" transform="translate(-56.6 -25.89)"/><path class="a" d="M409.8,394.21h-31l-4.42,11.29H346.32l33.33-68.71h30.06L443,405.5H414.23ZM404,379.32l-9.63-24.72-9.68,24.72H404Z" transform="translate(-56.6 -25.89)"/><polygon class="a" points="193.4 0 172.16 33.13 214.28 33.13 156.1 58.2 231.54 58.2 138.88 85.06 247.57 85.06 122.24 111.02 264.2 111.02 106.17 136.09 280.28 136.09 88.95 162.95 297.49 162.95 72.31 188.92 314.14 188.92 56.24 213.99 330.2 213.99 39.6 239.96 346.85 239.96 21.81 267.71 364.63 267.71 0 301.74 386.8 301.74 193.4 0"/><text class="b" transform="translate(0 441.67) scale(0.93 1)">experience <tspan class="c" x="222.54" y="0">mar</tspan><tspan class="d" x="296.32" y="0">k</tspan><tspan class="c" x="318.78" y="0">eting.</tspan></text></svg>